HIERARCHY
ROOT Hips
{
	OFFSET 0.000000 0.000000 0.000000
	CHANNELS 6 Xposition Yposition Zposition Zrotation Yrotation Xrotation 
	JOINT LHipJoint
	{
		OFFSET 0.000000 0.000000 0.000000
		CHANNELS 3 Zrotation Yrotation Xrotation
		JOINT LeftUpLeg
		{
			OFFSET 1.363060 -1.794630 0.839290
			CHANNELS 3 Zrotation Yrotation Xrotation
			JOINT LeftLeg
			{
				OFFSET 2.448110 -6.726130 0.000000
				CHANNELS 3 Zrotation Yrotation Xrotation
				JOINT LeftFoot
				{
					OFFSET 2.562200 -7.039590 0.000000
					CHANNELS 3 Zrotation Yrotation Xrotation
					JOINT LeftToeBase
					{
						OFFSET 0.157640 -0.433110 2.322550
						CHANNELS 3 Zrotation Yrotation Xrotation
						End Site
						{
							OFFSET 0.000000 0.000000 0.000000
						}
					}
				}
			}
		}
	}
	JOINT RHipJoint
	{
		OFFSET 0.000000 0.000000 0.000000
		CHANNELS 3 Zrotation Yrotation Xrotation
		JOINT RightUpLeg
		{
			OFFSET -1.305520 -1.794630 0.839290
			CHANNELS 3 Zrotation Yrotation Xrotation
			JOINT RightLeg
			{
				OFFSET -2.542530 -6.985550 0.000000
				CHANNELS 3 Zrotation Yrotation Xrotation
				JOINT RightFoot
				{
					OFFSET -2.568260 -7.056230 0.000000
					CHANNELS 3 Zrotation Yrotation Xrotation
					JOINT RightToeBase
					{
						OFFSET -0.164730 -0.452590 2.363150
						CHANNELS 3 Zrotation Yrotation Xrotation
						End Site
						{
							OFFSET 0.000000 0.000000 0.000000
						}
					}
				}
			}
		}
	}
	JOINT LowerBack
	{
		OFFSET 0.000000 0.000000 0.000000
		CHANNELS 3 Zrotation Yrotation Xrotation
		JOINT Spine
		{
			OFFSET 0.028270 2.035590 -0.193380
			CHANNELS 3 Zrotation Yrotation Xrotation
			JOINT Spine1
			{
				OFFSET 0.056720 2.048850 -0.042750
				CHANNELS 3 Zrotation Yrotation Xrotation
				JOINT Neck
				{
					OFFSET 0.000000 0.000000 0.000000
					CHANNELS 3 Zrotation Yrotation Xrotation
					JOINT Neck1
					{
						OFFSET -0.054170 1.746240 0.172020
						CHANNELS 3 Zrotation Yrotation Xrotation
						JOINT Head
						{
							OFFSET 0.104070 1.761360 -0.123970
							CHANNELS 3 Zrotation Yrotation Xrotation
							End Site
							{
								OFFSET 0.000000 0.000000 0.000000
							}
						}
					}
				}
				JOINT LeftShoulder
				{
					OFFSET 0.000000 0.000000 0.000000
					CHANNELS 3 Zrotation Yrotation Xrotation
					JOINT LeftArm
					{
						OFFSET 3.362410 1.200890 -0.311210
						CHANNELS 3 Zrotation Yrotation Xrotation
						JOINT LeftForeArm
						{
							OFFSET 4.983000 -0.000000 -0.000000
							CHANNELS 3 Zrotation Yrotation Xrotation
							JOINT LeftHand
							{
								OFFSET 3.483560 -0.000000 -0.000000
								CHANNELS 3 Zrotation Yrotation Xrotation
								JOINT LeftFingerBase
								{
									OFFSET 0.000000 0.000000 0.000000
									CHANNELS 3 Zrotation Yrotation Xrotation
									JOINT LeftHandIndex1
									{
										OFFSET 0.715260 -0.000000 -0.000000
										CHANNELS 3 Zrotation Yrotation Xrotation
										End Site
										{
											OFFSET 0.000000 0.000000 0.000000
										}
									}
								}
								JOINT LThumb
								{
									OFFSET 0.000000 0.000000 0.000000
									CHANNELS 3 Zrotation Yrotation Xrotation
									End Site
									{
										OFFSET 0.000000 0.000000 0.000000
									}
								}
							}
						}
					}
				}
				JOINT RightShoulder
				{
					OFFSET 0.000000 0.000000 0.000000
					CHANNELS 3 Zrotation Yrotation Xrotation
					JOINT RightArm
					{
						OFFSET -3.136600 1.374050 -0.404650
						CHANNELS 3 Zrotation Yrotation Xrotation
						JOINT RightForeArm
						{
							OFFSET -5.241900 -0.000000 -0.000000
							CHANNELS 3 Zrotation Yrotation Xrotation
							JOINT RightHand
							{
								OFFSET -3.444170 -0.000000 -0.000000
								CHANNELS 3 Zrotation Yrotation Xrotation
								JOINT RightFingerBase
								{
									OFFSET 0.000000 0.000000 0.000000
									CHANNELS 3 Zrotation Yrotation Xrotation
									JOINT RightHandIndex1
									{
										OFFSET -0.622530 -0.000000 -0.000000
										CHANNELS 3 Zrotation Yrotation Xrotation
										End Site
										{
											OFFSET 0.000000 0.000000 0.000000
										}
									}
								}
								JOINT RThumb
								{
									OFFSET 0.000000 0.000000 0.000000
									CHANNELS 3 Zrotation Yrotation Xrotation
									End Site
									{
										OFFSET 0.000000 0.000000 0.000000
									}
								}
							}
						}
					}
				}
			}
		}
	}
}
MOTION
Frames: 6
Frame Time: 0.008333
-3.971681 16.691388 -1.240447 4.274857 75.705134 23.195775 -8.802588 -1.214769 0.977268 -5.636306 -8.412743 -42.464759 -1.795523 0.623953 19.156885 -0.137649 -1.748130 7.797122 -0.153600 0.000000 -34.251700 11.062481 -1.074946 -3.613645 4.898660 -2.443664 -18.054064 0.933229 -3.746027 49.024895 1.048088 12.617441 -3.196753 0.661299 -0.000000 -67.971200 -3.829436 1.645712 4.897067 -1.960786 1.881993 -2.195376 -7.406388 1.794178 -0.151059 11.605263 6.099804 4.655009 -4.564201 -0.417915 2.856053 0.000000 0.000000 0.000000 -6.503225 1.543172 1.415660 -64.132405 -4.841571 18.994137 -2.832935 -38.866317 0.002276 3.093782 -1.909850 -0.053648 -0.094269 0.043842 0.000000 0.000000 0.000000 0.000000 0.000000 0.000000 0.000000 21.175763 6.630997 -0.948579 75.287833 25.119104 22.472880 2.285251 34.252239 0.007506 3.095614 9.681199 0.268457 -0.013516 -0.170566 0.000000 0.000000 0.000000 0.000000 0.000000 0.000000 0.000000 
-3.871272 16.687452 -1.239261 5.064278 75.260278 23.979355 -8.733300 -1.189772 0.852917 -6.177378 -8.314638 -42.679913 -1.796842 0.698077 20.560305 -0.077862 -1.311636 6.819453 -0.026400 -0.000001 -33.655100 11.231174 -1.011516 -3.576664 4.354202 -2.302890 -18.977314 0.657307 -3.888133 50.828404 0.981240 12.347145 -1.580741 0.991800 -0.000000 -70.379100 -4.210608 1.586725 4.979585 -2.042134 1.837947 -2.188009 -7.448830 1.746935 -0.181720 11.643834 6.345359 4.778145 -4.576973 -0.419194 2.881988 0.000000 0.000000 0.000000 -6.472793 1.115049 1.489981 -63.581462 -5.369157 19.240113 -2.919600 -37.709981 0.002475 2.930225 -1.843662 -0.049059 -0.095127 0.040422 0.000000 0.000000 0.000000 0.000000 0.000000 0.000000 0.000000 21.270266 6.735490 -0.935700 75.600049 24.702217 20.646868 2.322677 32.524856 0.007149 3.037393 9.817543 0.266851 -0.012761 -0.165419 0.000000 0.000000 0.000000 0.000000 0.000000 0.000000 0.000000 
-3.775361 16.689314 -1.240650 5.591836 74.824773 24.493375 -8.662455 -1.175483 0.727193 -6.599543 -8.293262 -42.728175 -1.796531 0.752644 21.742551 -0.012796 -0.862920 5.748466 0.089600 0.000000 -33.328599 11.378099 -0.935289 -3.547384 3.901401 -2.059575 -19.839969 0.382435 -4.014528 52.526260 0.894943 11.997993 0.183121 1.342600 0.000001 -72.433000 -4.496208 1.546449 5.101061 -2.102595 1.809134 -2.170149 -7.478454 1.715342 -0.207958 11.624359 6.607256 4.918810 -4.580670 -0.419996 2.912237 0.000000 0.000000 0.000000 -6.493136 0.653373 1.565833 -63.030423 -5.994109 19.476979 -3.012800 -36.389739 0.002591 2.723377 -1.731434 -0.042772 -0.095874 0.037039 0.000000 0.000000 0.000000 0.000000 0.000000 0.000000 0.000000 21.258945 6.853676 -0.923214 75.897297 24.318164 18.586578 2.358924 30.730620 0.006724 2.869814 9.969381 0.255746 -0.010767 -0.160369 0.000000 0.000000 0.000000 0.000000 0.000000 0.000000 0.000000 
-3.683368 16.696633 -1.244961 5.855645 74.387814 24.734481 -8.595383 -1.170625 0.599016 -6.908071 -8.317326 -42.611620 -1.794555 0.788692 22.689172 0.056753 -0.409151 4.657202 0.189400 0.000000 -33.239100 11.502058 -0.849009 -3.524130 3.542372 -1.724735 -20.635795 0.114201 -4.123439 54.107047 0.790194 11.592504 2.086296 1.704400 -0.000000 -74.095400 -4.685458 1.525628 5.257723 -2.141969 1.796354 -2.141781 -7.495730 1.700349 -0.225271 11.547237 6.886229 5.072035 -4.576350 -0.420337 2.945448 0.000000 0.000000 0.000000 -6.559770 0.190823 1.641256 -62.492816 -6.731914 19.695332 -3.113056 -34.903342 0.002604 2.477164 -1.568591 -0.035288 -0.096683 0.033871 0.000000 0.000000 0.000000 0.000000 0.000000 0.000000 0.000000 21.147831 6.989386 -0.911480 76.162122 23.966191 16.331222 2.392498 28.902337 0.006260 2.590521 10.131012 0.234245 -0.007593 -0.155521 0.000000 0.000000 0.000000 0.000000 0.000000 0.000000 0.000000 
-3.594576 16.708835 -1.252217 5.872001 73.939423 24.718921 -8.536023 -1.173285 0.467922 -7.116689 -8.355002 -42.342896 -1.790810 0.808087 23.398594 0.129547 0.046252 3.612843 0.272100 0.000000 -33.328500 11.603644 -0.755943 -3.503840 3.273603 -1.312999 -21.365136 -0.141924 -4.214130 55.565913 0.668364 11.149422 4.111729 2.067100 0.000000 -75.304500 -4.784066 1.523420 5.441979 -2.161402 1.799118 -2.105029 -7.501643 1.701353 -0.234616 11.417891 7.188889 5.238230 -4.565287 -0.420319 2.981805 0.000000 0.000000 0.000000 -6.664258 -0.263703 1.715193 -61.980593 -7.561435 19.859109 -3.219258 -33.271805 0.002490 2.194640 -1.346767 -0.026906 -0.097598 0.031082 0.000000 0.000000 0.000000 0.000000 0.000000 0.000000 0.000000 20.948866 7.151453 -0.899054 76.376433 23.628952 13.916538 2.421948 27.084744 0.005789 2.216342 10.286480 0.203142 -0.003507 -0.150934 0.000000 0.000000 0.000000 0.000000 0.000000 0.000000 0.000000 
-3.508218 16.725226 -1.262252 5.662871 73.471415 24.471198 -8.487500 -1.181531 0.333617 -7.242002 -8.372905 -41.945659 -1.785016 0.813665 23.884200 0.203686 0.498745 2.670071 0.339000 -0.000000 -33.525000 11.684073 -0.659760 -3.482476 3.091587 -0.839076 -22.033965 -0.380586 -4.286681 56.903151 0.531569 10.680888 6.226516 2.418000 0.000001 -75.985700 -4.800876 1.537745 5.644028 -2.162942 1.815862 -2.061188 -7.498161 1.716832 -0.232433 11.243403 7.500832 5.410998 -4.550632 -0.420082 3.019612 0.000000 0.000000 0.000000 -6.793070 -0.696328 1.784296 -61.506325 -8.470149 19.937374 -3.329758 -31.511964 0.002236 1.889645 -1.069274 -0.018427 -0.098684 0.028860 0.000000 0.000000 0.000000 0.000000 0.000000 0.000000 0.000000 20.684556 7.324842 -0.885074 76.523855 23.313682 11.442476 2.447436 25.302651 0.005342 1.753329 10.433446 0.162640 0.001445 -0.146651 0.000000 0.000000 0.000000 0.000000 0.000000 0.000000 0.000000 
